<svg width="124" height="20" viewBox="0 0 124 20" fill="none" xmlns="http://www.w3.org/2000/svg">
<path d="M18.51 0.449219H5.55176V4.00794H18.51V0.449219Z" fill="#1D37E7"/>
<path d="M19.0838 19.5108H15.5429C15.5429 16.8418 14.5019 14.3329 12.6158 12.4467C10.7297 10.5606 8.2208 9.51969 5.55176 9.51969V5.97876C7.3756 5.97876 9.15051 6.33463 10.8187 7.04193C12.429 7.72253 13.8792 8.70118 15.1203 9.94229C16.3614 11.1834 17.34 12.6336 18.0206 14.2439C18.7279 15.9121 19.0838 17.687 19.0838 19.5108Z" fill="#1D37E7"/>
<path d="M2.04182 20.0001C3.16948 20.0001 4.08363 19.086 4.08363 17.9583C4.08363 16.8307 3.16948 15.9165 2.04182 15.9165C0.914153 15.9165 0 16.8307 0 17.9583C0 19.086 0.914153 20.0001 2.04182 20.0001Z" fill="#1D37E7"/>
<path d="M2.04182 9.79091C3.16948 9.79091 4.08363 8.87676 4.08363 7.7491C4.08363 6.62143 3.16948 5.70728 2.04182 5.70728C0.914153 5.70728 0 6.62143 0 7.7491C0 8.87676 0.914153 9.79091 2.04182 9.79091Z" fill="#1D37E7"/>
<path d="M2.04182 4.26601C3.16948 4.26601 4.08363 3.35185 4.08363 2.22419C4.08363 1.09652 3.16948 0.182373 2.04182 0.182373C0.914153 0.182373 0 1.09652 0 2.22419C0 3.35185 0.914153 4.26601 2.04182 4.26601Z" fill="#1D37E7"/>
<path d="M28.5674 0.369385H31.7658V8.18968H38.9989V0.369385H42.2195V19.5998H38.9989V11.2235H31.7658V19.5998H28.5674V0.369385Z" fill="#1D37E7"/>
<path d="M45.1152 0.395996H48.3359V19.6042H45.1152V0.395996Z" fill="#1D37E7"/>
<path d="M60.0967 19.5998L57.8547 14.9068C57.2497 15.0002 56.5958 15.0714 55.8707 15.0714H54.425V19.6221H51.2266V0.369385H55.4748C61.5202 0.369385 63.7355 3.89252 63.7355 7.7226C63.7355 10.1514 62.8013 12.4602 60.7017 13.8125L63.9223 19.5998H60.0967ZM55.9686 11.9708C59.0024 11.9708 60.6127 10.2448 60.6127 7.7226C60.6127 5.20035 58.9534 3.49661 55.9686 3.49661H54.4294V11.9664H55.9686V11.9708Z" fill="#1D37E7"/>
<path d="M65.1865 9.98667C65.1865 4.64414 69.4347 0 75.1732 0C80.9116 0 85.6536 5.08898 85.0709 10.8274H68.336C68.6162 14.186 71.441 16.9173 75.151 16.9173C77.9534 16.9173 80.3067 15.1913 81.2186 12.9048H84.6972C83.5317 16.895 79.7728 19.9511 75.1732 19.9511C69.4303 19.9511 65.1865 15.3292 65.1865 9.98667ZM81.6857 8.02492C81.0317 5.22243 78.3716 2.98488 75.151 2.98488C71.9303 2.98488 69.3146 5.22688 68.6162 8.02492H81.6857Z" fill="#1D37E7"/>
<path d="M87.2637 0.395996H90.4843V19.6042H87.2637V0.395996Z" fill="#1D37E7"/>
<path d="M93.3795 0.395772H96.6223L104.371 13.8166V0.373535H107.592V19.604H104.416L96.5957 6.08973V19.604H93.375V0.395772H93.3795Z" fill="#1D37E7"/>
<path d="M111.935 0.396048H122.509V3.42986H114.457L114.012 6.88182H116.463C121.339 6.88182 123.51 9.40407 123.51 13.114C123.51 17.2911 120.64 19.8801 116.65 19.8801C112.66 19.8801 109.648 17.2911 109.648 12.9495H112.891C112.891 15.3293 114.337 16.8018 116.65 16.8018C118.963 16.8018 120.338 15.4495 120.338 13.114C120.338 10.921 119.101 9.5909 115.952 9.5909H112.402L110.814 8.11848L111.935 0.391602V0.396048Z" fill="#1D37E7"/>
</svg>
